<svg width="122" height="68" viewBox="0 0 122 68" fill="none" xmlns="http://www.w3.org/2000/svg">
<g clip-path="url(#clip0_267_101)">
<path fill-rule="evenodd" clip-rule="evenodd" d="M90.9158 38.4795C94.7388 35.5001 98.6798 36.7557 103.232 35.8389C111.706 34.1293 117.629 29.1814 122.002 20.6797C111.269 25.6488 101.536 23.276 91.9336 20.3037C92.0551 19.1545 92.1449 18.3175 92.1714 18.0656C92.2154 17.6702 92.2823 17.1523 92.3474 16.6079C92.3474 16.599 92.3492 16.5902 92.351 16.5813C92.3563 16.5441 92.3598 16.5068 92.3651 16.4678C92.3668 16.4518 92.3686 16.4359 92.3703 16.4217C92.3756 16.3685 92.3827 16.3153 92.3897 16.2621C92.3915 16.2461 92.3932 16.2284 92.395 16.2124C92.4003 16.1734 92.4038 16.1362 92.4073 16.0971C92.4108 16.0759 92.4126 16.0564 92.4144 16.0369C92.4179 16.0014 92.4214 15.9641 92.4267 15.9287C92.4285 15.9092 92.4302 15.8897 92.432 15.8719C92.4337 15.856 92.4355 15.8418 92.4373 15.8276V15.8223C92.4408 15.7903 92.4443 15.7602 92.4461 15.7283C92.4461 15.7159 92.4496 15.7035 92.4496 15.691C92.4496 15.6822 92.4514 15.6715 92.4531 15.6609C92.4566 15.6254 92.4602 15.59 92.4637 15.5545V15.5474C92.4637 15.5279 92.4672 15.5101 92.469 15.4906C92.469 15.4676 92.4725 15.4428 92.476 15.4197C92.476 15.4091 92.4778 15.3984 92.476 15.3896C92.4778 15.3683 92.4795 15.3488 92.4813 15.3275C92.4813 15.3133 92.4848 15.2991 92.4848 15.2849C92.4848 15.269 92.4866 15.2512 92.4883 15.2335C92.4883 15.2122 92.4901 15.1927 92.4918 15.1714C92.4918 15.1661 92.4918 15.159 92.4918 15.1537C92.4936 15.136 92.4954 15.1182 92.4954 15.1023C92.4954 15.0774 92.4989 15.0526 92.5006 15.0278V14.9852C92.5006 14.9852 92.5042 14.9763 92.5042 14.971C92.5042 14.9462 92.5077 14.9214 92.5095 14.8965C92.5095 14.8895 92.5095 14.8841 92.5095 14.8788C92.5095 14.8611 92.5112 14.8416 92.513 14.8238C92.513 14.8079 92.513 14.7901 92.5147 14.7742C92.5147 14.7618 92.5147 14.7494 92.5147 14.7387C92.5147 14.7192 92.5147 14.7015 92.5165 14.682C92.5165 14.6731 92.5165 14.6642 92.5165 14.6554C92.5165 14.6429 92.5165 14.6288 92.5165 14.6163C92.5165 14.6075 92.5165 14.5986 92.5165 14.5897C92.5165 14.5756 92.5165 14.5614 92.5165 14.549V14.5401C92.5165 14.5277 92.5165 14.517 92.5165 14.5046C92.5165 14.4798 92.5165 14.455 92.5165 14.4301V14.423C92.5165 14.4106 92.5165 14.3964 92.5165 14.3823C92.5165 14.361 92.5165 14.3415 92.5165 14.322L92.5095 14.1411C92.5095 14.1411 92.5095 14.1287 92.5095 14.1251V14.118C92.5095 14.0879 92.5059 14.0613 92.5042 14.0347C92.5007 13.9992 92.4954 13.9637 92.4883 13.9283C92.4883 13.9194 92.4848 13.9088 92.483 13.8981C92.4778 13.8715 92.4725 13.8449 92.4654 13.8183C92.4619 13.8094 92.4601 13.8006 92.4584 13.7917C92.439 13.7208 92.4144 13.6498 92.3862 13.5807C92.3827 13.5718 92.3792 13.5647 92.3756 13.5558C92.3633 13.5275 92.351 13.4973 92.3369 13.4689C92.3334 13.4618 92.3298 13.453 92.3263 13.4477C92.2911 13.375 92.2506 13.304 92.2083 13.2331C92.2048 13.226 92.1995 13.2207 92.1978 13.2136C92.1784 13.1834 92.159 13.1533 92.1361 13.1214C92.1326 13.116 92.1291 13.1107 92.1273 13.1054C92.078 13.0345 92.027 12.96 91.9706 12.889C91.9671 12.8855 91.9636 12.8819 91.9618 12.8784C91.9371 12.8465 91.909 12.811 91.8826 12.7773C91.8808 12.7755 91.879 12.772 91.8755 12.7702C91.4846 12.2878 90.988 11.8143 90.6164 11.3497C90.5848 11.3107 90.5548 11.2699 90.5266 11.2291C90.5231 11.2238 90.5178 11.2185 90.5143 11.2132C90.5055 11.199 90.4967 11.1866 90.4879 11.1724C90.4685 11.144 90.4509 11.1174 90.4333 11.089C90.4227 11.0695 90.4122 11.0518 90.4016 11.034C90.3858 11.0092 90.3734 10.9826 90.3593 10.9578C90.3505 10.9383 90.34 10.9188 90.3312 10.8975C90.3206 10.8727 90.3083 10.8496 90.2977 10.823C90.2889 10.8035 90.2819 10.784 90.2731 10.7645C90.2625 10.7396 90.2537 10.7148 90.2449 10.69C90.2378 10.6705 90.2308 10.651 90.2237 10.6315C90.2167 10.6066 90.2079 10.5836 90.2009 10.5588C90.1956 10.5393 90.1885 10.5197 90.185 10.502C90.178 10.4772 90.1709 10.4541 90.1656 10.4293C90.1604 10.4098 90.1568 10.3903 90.1516 10.3726C90.1463 10.3477 90.1427 10.3247 90.1375 10.3016C90.1322 10.2768 90.1287 10.252 90.1251 10.2271C90.1251 10.2236 90.1251 10.22 90.1251 10.2165C90.1181 10.181 90.1146 10.1456 90.1093 10.1101C90.1093 10.103 90.1075 10.0941 90.1075 10.087C90.1005 10.0232 90.097 9.95934 90.0934 9.89905C90.0934 9.84939 90.0917 9.80328 90.0917 9.75895C90.0917 9.74653 90.0917 9.73589 90.0917 9.72348C90.0917 9.68269 90.0934 9.64545 90.0952 9.60643C90.0952 9.59579 90.0952 9.58515 90.0952 9.57274C90.0952 9.56032 90.0952 9.54791 90.097 9.53727C90.097 9.53195 90.097 9.5284 90.097 9.52486C90.097 9.5089 90.097 9.49293 90.1005 9.4752C90.1005 9.45747 90.1022 9.43973 90.1058 9.42022C90.1058 9.40426 90.1075 9.38476 90.1111 9.37057C90.1111 9.35638 90.1146 9.34397 90.1146 9.32978C90.1163 9.31559 90.1181 9.29963 90.1199 9.28544C90.1234 9.26062 90.1251 9.23756 90.1269 9.21628C90.1269 9.20919 90.1287 9.20032 90.1304 9.19145C90.1322 9.17904 90.1339 9.16485 90.1357 9.15421C90.1357 9.13825 90.1392 9.12406 90.141 9.10988C90.1762 8.78711 90.4104 6.63418 90.5213 5.62333C90.5442 5.4123 90.5619 5.25092 90.5707 5.16579C90.5724 5.15338 90.5742 5.14451 90.5742 5.13387C90.5759 5.11791 90.5812 5.10372 90.5883 5.09308C90.5953 5.08421 90.6041 5.07535 90.6147 5.06825C90.6217 5.06471 90.6252 5.06116 90.6341 5.05939C90.6481 5.05584 90.6605 5.04875 90.671 5.04165H90.6657C90.6763 5.03633 90.6869 5.03101 90.6939 5.02746C90.7063 5.02037 90.7186 5.01328 90.7274 5.00441C90.7274 5.00441 90.7291 5.00441 90.7309 5.00086C90.7344 4.99732 90.7379 4.99377 90.7397 4.992H90.7415C90.7485 4.98313 90.752 4.97426 90.7556 4.96717C90.7556 4.96717 90.7573 4.96362 90.7573 4.96185C90.7608 4.95475 90.7626 4.94589 90.7644 4.93702C90.7696 4.89623 90.7925 4.69051 90.7996 4.62135C90.7996 4.61248 90.7996 4.60539 90.7996 4.5983C90.7996 4.59652 90.7996 4.59298 90.7996 4.5912C90.7996 4.58943 90.7996 4.58411 90.7961 4.58234C90.7961 4.58234 90.7961 4.58056 90.7961 4.57702C90.7961 4.57524 90.7925 4.5717 90.7925 4.56992C90.7925 4.56638 90.789 4.56283 90.7873 4.55928C90.7873 4.55751 90.7837 4.55396 90.7837 4.55219C90.7802 4.54687 90.7749 4.54332 90.7732 4.538C90.7732 4.538 90.7714 4.53623 90.7696 4.53268C90.7661 4.52913 90.7608 4.52559 90.7591 4.52204C90.7556 4.51672 90.752 4.51495 90.7485 4.5114C90.7485 4.5114 90.745 4.50785 90.745 4.50608C90.7432 4.50431 90.7415 4.50076 90.7397 4.49899C90.7397 4.49899 90.738 4.49721 90.7362 4.49544C90.7344 4.49367 90.7327 4.48835 90.7327 4.48657C90.7327 4.4848 90.7327 4.48125 90.7344 4.47948V4.4777C90.7344 4.47593 90.7379 4.47416 90.7397 4.47238C90.7397 4.47238 90.7415 4.47238 90.7432 4.46884C90.745 4.46884 90.7485 4.46529 90.752 4.46352C90.7626 4.45642 90.7749 4.44933 90.7837 4.43869C90.7837 4.43869 90.7855 4.43869 90.7873 4.43514C90.789 4.4316 90.7925 4.42982 90.7925 4.42805C90.7925 4.42805 90.7943 4.42805 90.7943 4.42628C90.7943 4.42628 90.7943 4.42568 90.7943 4.4245C90.7943 4.4245 90.7961 4.42096 90.7978 4.41918C90.7996 4.41386 90.8013 4.41031 90.8031 4.40499C90.8031 4.40145 90.8031 4.3979 90.8031 4.39081C90.8031 4.39081 90.8049 4.37839 90.8049 4.37307C90.8119 4.32164 90.826 4.21879 90.8383 4.11593C90.8418 4.08933 90.8454 4.0645 90.8489 4.0379C90.8594 3.94745 90.8718 3.86765 90.8753 3.83395C90.8753 3.83395 90.8753 3.82154 90.8771 3.81799C90.8771 3.81267 90.8771 3.80558 90.8735 3.80203C90.8735 3.80026 90.8735 3.79848 90.8735 3.79671C90.8735 3.79316 90.87 3.78962 90.8683 3.78607C90.8665 3.7843 90.863 3.78075 90.8594 3.7772C90.8577 3.77543 90.8542 3.77188 90.8506 3.76834C90.8506 3.76834 90.8489 3.76834 90.8489 3.76656C90.8454 3.76479 90.8436 3.75947 90.8401 3.7577C90.8401 3.7577 90.8401 3.7577 90.8401 3.75592C90.8366 3.75415 90.8348 3.74883 90.833 3.74528V3.74351C90.833 3.73996 90.833 3.73642 90.833 3.73464C90.833 3.73464 90.833 3.73287 90.833 3.7311C90.833 3.72577 90.833 3.72223 90.8383 3.71691C90.863 3.6708 90.8753 3.69917 90.9228 3.64597C90.9228 3.64597 90.9369 3.60164 90.9475 3.54489C90.9493 3.52893 90.951 3.51651 90.9545 3.50055C90.9563 3.48636 90.9581 3.47218 90.9598 3.45976V3.45621C90.9598 3.44203 90.9598 3.42961 90.9598 3.41543V3.40833C90.9598 3.39592 90.9598 3.38173 90.9563 3.37109C90.9563 3.36932 90.9563 3.36754 90.9563 3.364C90.9563 3.36045 90.9563 3.35868 90.9563 3.3569C90.9563 3.34804 90.9528 3.3374 90.951 3.3303C90.9105 3.21858 90.5319 3.11395 90.0864 3.04656C89.949 3.02527 89.5123 2.95256 89.3274 2.9366C89.1443 2.91 88.7005 2.88695 88.5632 2.87808C88.1141 2.84616 87.7197 2.86567 87.6581 2.96498C87.6528 2.97384 87.6475 2.98449 87.6422 2.9969C87.6422 2.99867 87.6404 3.00045 87.6404 3.00399C87.6352 3.01463 87.6316 3.02705 87.6299 3.03769C87.6299 3.04123 87.6281 3.04478 87.6264 3.04833C87.6246 3.06074 87.6228 3.07138 87.6193 3.0838C87.6193 3.08912 87.6193 3.09266 87.6176 3.09621C87.6176 3.10508 87.6158 3.11217 87.614 3.12281C87.614 3.12991 87.614 3.13877 87.614 3.14764C87.614 3.15296 87.614 3.16005 87.614 3.1636C87.6123 3.20971 87.614 3.2505 87.614 3.27001C87.614 3.2771 87.614 3.28242 87.614 3.28242C87.6475 3.34272 87.6669 3.31966 87.681 3.36932C87.681 3.37641 87.681 3.38173 87.681 3.38528V3.38883C87.681 3.38883 87.6792 3.39592 87.6774 3.39769C87.6774 3.39769 87.6774 3.39828 87.6774 3.39947L87.6686 3.40833C87.6651 3.40833 87.6616 3.41188 87.6581 3.41543H87.6563C87.6528 3.41897 87.6493 3.42075 87.6457 3.42252C87.644 3.42429 87.6387 3.42607 87.6369 3.42961C87.6352 3.43316 87.6334 3.43493 87.6316 3.43671C87.6316 3.43671 87.6299 3.44025 87.6281 3.44025C87.6264 3.4438 87.6228 3.44912 87.6228 3.45444C87.6228 3.45621 87.6228 3.46154 87.6211 3.46686C87.6211 3.4704 87.6211 3.4775 87.6211 3.48282C87.6176 3.51651 87.614 3.56971 87.6088 3.63178C87.607 3.65484 87.6035 3.67967 87.6017 3.70449C87.5929 3.80735 87.5823 3.91376 87.577 3.98115C87.577 3.98824 87.5753 3.99711 87.577 4.00243V4.0042C87.577 4.0113 87.5771 4.02016 87.5753 4.02548V4.02903C87.5753 4.02903 87.5753 4.0379 87.5753 4.04144C87.5753 4.04854 87.5753 4.0574 87.577 4.06272C87.577 4.06272 87.577 4.06272 87.577 4.0645C87.577 4.0645 87.5771 4.06804 87.5806 4.06982C87.5806 4.07159 87.5806 4.07336 87.5841 4.07691C87.5841 4.07869 87.5876 4.08223 87.5894 4.08401C87.5929 4.08933 87.5982 4.09465 87.6017 4.09819C87.6017 4.09819 87.6087 4.10706 87.6123 4.11061L87.6211 4.1177C87.6211 4.1177 87.6211 4.11947 87.6246 4.12125C87.6246 4.12302 87.6281 4.12479 87.6281 4.12834C87.6281 4.12834 87.6281 4.12834 87.6299 4.13011V4.13721C87.6299 4.13721 87.6264 4.14253 87.6246 4.1443C87.6246 4.1443 87.6228 4.1443 87.6211 4.14785C87.6211 4.14785 87.6176 4.1514 87.614 4.15317C87.614 4.15317 87.6123 4.15494 87.6088 4.15672C87.6052 4.16026 87.6017 4.16204 87.5964 4.16558C87.5929 4.16558 87.5894 4.16913 87.5859 4.17268C87.5859 4.17445 87.5823 4.17622 87.5788 4.178C87.5735 4.18154 87.57 4.18686 87.5647 4.19041C87.5647 4.19041 87.563 4.19218 87.5594 4.19573C87.5559 4.19928 87.5542 4.20282 87.5506 4.20637C87.5489 4.20637 87.5471 4.20992 87.5454 4.21169C87.5454 4.21347 87.5436 4.21524 87.5418 4.21701C87.5418 4.21879 87.5401 4.22233 87.5383 4.22588C87.5383 4.22588 87.5365 4.22943 87.5348 4.2312C87.533 4.23829 87.5295 4.24539 87.5295 4.25425C87.5225 4.32342 87.4996 4.52913 87.496 4.56992C87.496 4.57879 87.496 4.58766 87.496 4.59652C87.496 4.5983 87.496 4.60007 87.496 4.60184C87.496 4.61071 87.5013 4.6178 87.5049 4.62667C87.5049 4.62667 87.5049 4.62667 87.5049 4.62845C87.5049 4.63199 87.5084 4.63554 87.5119 4.63909C87.5119 4.63909 87.5137 4.64086 87.5154 4.64263C87.5225 4.65327 87.5313 4.66391 87.5418 4.67101C87.5489 4.67633 87.5577 4.68342 87.5682 4.69052H87.5594C87.5682 4.69938 87.5788 4.70825 87.5911 4.71534C87.6246 4.73662 87.6404 4.76323 87.6369 4.80047C87.6369 4.80933 87.6352 4.8182 87.6334 4.83062C87.6228 4.91751 87.6052 5.07889 87.5823 5.28993C87.4732 6.30255 87.2372 8.45548 87.202 8.77647C87.202 8.79066 87.1985 8.80485 87.1967 8.82081C87.1967 8.835 87.1932 8.85096 87.1932 8.86692C87.1932 8.87046 87.1932 8.87401 87.1914 8.87933C87.1914 8.90416 87.1861 8.92899 87.1844 8.95736C87.1826 8.96978 87.1808 8.98396 87.1791 8.99815C87.1791 9.01234 87.1756 9.02475 87.1738 9.03894C87.172 9.0549 87.1703 9.07086 87.1685 9.0886C87.1668 9.10633 87.1632 9.12406 87.1615 9.14357C87.1579 9.16308 87.1544 9.18259 87.1527 9.20209C87.1527 9.21451 87.1491 9.2287 87.1456 9.24111C87.1456 9.25175 87.1421 9.26239 87.1403 9.27303C87.1333 9.31027 87.1263 9.34929 87.1192 9.3883C87.1174 9.40072 87.1157 9.40958 87.1122 9.422C87.1016 9.47165 87.0893 9.52131 87.0769 9.57097C87.0523 9.66141 87.0224 9.7554 86.9871 9.84939C86.9801 9.86713 86.9748 9.88309 86.9678 9.90082C86.966 9.90614 86.9625 9.91324 86.9607 9.91856C86.9554 9.93274 86.9484 9.94693 86.9414 9.96112C86.9378 9.96998 86.9343 9.97885 86.929 9.98949C86.9237 10.0019 86.9167 10.0161 86.9114 10.0285C86.9061 10.0391 86.9026 10.0498 86.8956 10.0604C86.8903 10.0728 86.8832 10.0835 86.878 10.0977C86.8727 10.1083 86.8656 10.1207 86.8603 10.1314C86.8551 10.142 86.848 10.1544 86.841 10.1651C86.8357 10.1775 86.8269 10.1899 86.8198 10.2023C86.8146 10.2147 86.8075 10.2254 86.8022 10.236C86.7934 10.2502 86.7846 10.2644 86.7758 10.2786C86.7705 10.2874 86.7653 10.2963 86.7582 10.3052C86.7441 10.3282 86.7283 10.3513 86.7124 10.3743C86.7089 10.3796 86.7036 10.3867 86.6983 10.3921C86.6878 10.408 86.6755 10.4258 86.6631 10.4417C86.6561 10.4506 86.649 10.4594 86.6438 10.4665C86.6332 10.4807 86.6209 10.4949 86.6085 10.5091C86.6015 10.518 86.5944 10.5268 86.5856 10.5357C86.5751 10.5499 86.5627 10.5641 86.5504 10.5765C86.5416 10.5854 86.5346 10.5942 86.5258 10.6031L86.4888 10.6439C86.4817 10.6528 86.4729 10.6616 86.4641 10.6705C86.45 10.6847 86.4377 10.6971 86.4236 10.7113C86.4148 10.7201 86.4078 10.7272 86.3972 10.7361C86.3831 10.7503 86.3673 10.7662 86.3514 10.7787C86.3444 10.7858 86.3373 10.7929 86.3285 10.7999C86.3056 10.8195 86.2792 10.8407 86.2546 10.862C86.2282 10.8815 86.2018 10.9046 86.1736 10.9259C86.1665 10.9312 86.1577 10.9365 86.1507 10.9436C86.1313 10.9578 86.1102 10.9755 86.0891 10.9897C86.082 10.995 86.0767 10.9986 86.0697 11.0039C86.0486 11.0198 86.0257 11.0358 86.0028 11.0518C85.9975 11.0553 85.994 11.0589 85.9887 11.0624C85.9658 11.0801 85.9394 11.0979 85.9147 11.1156C85.913 11.1174 85.9077 11.1192 85.9059 11.1227C85.6752 11.2876 85.4287 11.4543 85.1875 11.6228C85.154 11.6459 85.1188 11.6707 85.0853 11.6955L85.0519 11.7203C85.029 11.7363 85.0061 11.754 84.9832 11.77C84.9691 11.7789 84.9568 11.7895 84.9427 11.8002C84.9215 11.8143 84.9004 11.8321 84.8793 11.848C84.867 11.8569 84.8529 11.8675 84.8405 11.8764C84.8141 11.8959 84.7895 11.9172 84.7648 11.9367C84.7578 11.942 84.7507 11.9473 84.7437 11.9544C84.7226 11.9704 84.7014 11.9881 84.6803 12.0041C84.6785 12.0076 84.6733 12.0094 84.6697 12.013C84.6627 12.0183 84.6574 12.0236 84.6504 12.0289C84.6398 12.0378 84.6292 12.0467 84.6187 12.0555C84.6134 12.0591 84.6081 12.0644 84.6028 12.0697C84.5975 12.0733 84.594 12.0786 84.5905 12.0804C84.5799 12.0892 84.5694 12.0981 84.5588 12.107C84.5482 12.1176 84.5359 12.1265 84.5236 12.1371C84.5201 12.1407 84.5148 12.1442 84.5112 12.1477C84.4972 12.1619 84.4813 12.1743 84.4672 12.1885C84.4567 12.1974 84.4479 12.2063 84.4373 12.2151C84.4373 12.2151 84.4373 12.2151 84.4355 12.2187C84.4162 12.2364 84.395 12.2541 84.3774 12.2737C84.3721 12.279 84.3668 12.2825 84.3633 12.2878C84.3598 12.2914 84.3563 12.2949 84.3528 12.2985C84.3387 12.3127 84.3228 12.3286 84.3087 12.3428C84.3017 12.3481 84.2982 12.3535 84.2911 12.3588C84.2841 12.3659 84.2788 12.373 84.2718 12.3783C84.263 12.3872 84.2559 12.3978 84.2471 12.4049C84.2453 12.4084 84.2418 12.4102 84.2401 12.4138C84.2348 12.4191 84.2295 12.4262 84.2242 12.4315C84.2136 12.4421 84.2066 12.4528 84.1978 12.4634C84.189 12.4723 84.1802 12.4829 84.1714 12.4936C84.1679 12.4971 84.1643 12.5024 84.1608 12.506C84.1467 12.5219 84.1344 12.5379 84.1221 12.5521C84.115 12.5627 84.1062 12.5716 84.0992 12.5805C84.0851 12.5982 84.0728 12.6159 84.0604 12.6337C84.0552 12.6408 84.0499 12.6478 84.0464 12.6549C84.0464 12.6567 84.0428 12.6603 84.0411 12.662C84.0411 12.6638 84.0393 12.6656 84.0376 12.6691C84.027 12.6815 84.0199 12.6975 84.0094 12.7099C84.0041 12.717 83.9988 12.7259 83.9953 12.733C83.99 12.7401 83.9847 12.7472 83.9812 12.756C83.9759 12.7649 83.9706 12.7755 83.9654 12.7844C83.9601 12.7933 83.9565 12.8021 83.9513 12.8092C83.9442 12.8216 83.9372 12.8341 83.9319 12.8465C83.9266 12.8553 83.9231 12.8642 83.9178 12.8748C83.916 12.8802 83.9125 12.8855 83.9108 12.8908C83.902 12.9085 83.8949 12.9263 83.8879 12.944C83.8844 12.9529 83.8791 12.9635 83.8755 12.9724C83.8685 12.9901 83.8632 13.0061 83.8562 13.0238C83.8544 13.0309 83.8509 13.0362 83.8491 13.0433C83.8474 13.0504 83.8438 13.0593 83.8403 13.0664C83.8315 13.093 83.8227 13.1231 83.8157 13.1515C83.8157 13.1533 83.8157 13.155 83.8139 13.1586C83.8122 13.1692 83.8086 13.1799 83.8069 13.1905C83.8051 13.1976 83.8016 13.2029 83.8016 13.21C83.7981 13.2224 83.7945 13.2313 83.7928 13.2437C83.7928 13.2473 83.791 13.2508 83.7893 13.2561C83.7857 13.2685 83.7822 13.2827 83.7787 13.2969C83.7787 13.2987 83.7769 13.3022 83.7769 13.304C83.7734 13.3164 83.7717 13.3271 83.7681 13.3413C83.7681 13.3484 83.7646 13.3537 83.7628 13.359C83.7593 13.3767 83.7558 13.3909 83.7523 13.4086C83.7505 13.4211 83.747 13.4317 83.7452 13.4459C83.7435 13.453 83.7417 13.4636 83.74 13.4725C83.7364 13.4902 83.7329 13.508 83.7294 13.5239C83.7276 13.5346 83.7259 13.5452 83.7223 13.5558C83.7206 13.5665 83.7188 13.5771 83.7153 13.5878C83.7118 13.6055 83.7083 13.625 83.7047 13.6427C83.7047 13.6516 83.7012 13.6587 83.7012 13.6693C83.6977 13.6818 83.6959 13.6959 83.6942 13.7084C83.6906 13.7279 83.6871 13.7474 83.6836 13.7686C83.6836 13.7757 83.6818 13.7811 83.6801 13.7882C83.6766 13.8041 83.6748 13.8201 83.6713 13.8343C83.6678 13.8538 83.6642 13.8751 83.6607 13.8946C83.6607 13.8999 83.6607 13.9052 83.6589 13.9105C83.6572 13.9265 83.6537 13.9424 83.6519 13.9602C83.6484 13.9815 83.6466 14.0045 83.6413 14.0258C83.6413 14.0276 83.6413 14.0329 83.6413 14.0364C83.6396 14.0489 83.6378 14.063 83.6343 14.0772C83.6325 14.0896 83.6308 14.1003 83.629 14.1127C83.6237 14.1464 83.6184 14.1783 83.6132 14.212C83.6096 14.2386 83.6061 14.267 83.6026 14.2936C83.6008 14.3131 83.5973 14.3344 83.5938 14.3539C83.5903 14.3805 83.5868 14.4089 83.5832 14.4372C83.5815 14.4585 83.5779 14.478 83.5762 14.4958C83.5727 14.5259 83.5674 14.556 83.5639 14.588C83.5621 14.6039 83.5603 14.6199 83.5586 14.6376C83.5551 14.6731 83.5498 14.7068 83.5463 14.7423C83.5463 14.7547 83.5427 14.7671 83.5427 14.7777C83.5374 14.8203 83.5322 14.8628 83.5269 14.9072C83.5269 14.9107 83.5269 14.9143 83.5269 14.9196C83.5251 14.9373 83.5234 14.9551 83.5216 14.971C83.5181 14.9959 83.5163 15.0207 83.5146 15.0455C83.5128 15.0615 83.511 15.0774 83.5093 15.0934C83.504 15.136 83.5005 15.1803 83.4952 15.2229C83.4952 15.2229 83.4952 15.2264 83.4952 15.2282C83.46 15.5687 83.4265 15.9092 83.3966 16.2248C83.3666 16.5405 83.3385 16.8331 83.312 17.0779C83.3015 17.1754 83.2803 17.3634 83.2522 17.6241C83.2451 17.6223 83.2346 17.6187 83.2275 17.617C80.9717 16.9785 78.7142 16.5653 76.4532 16.3791C76.425 13.4264 76.388 10.3442 76.3563 9.70574C76.2912 8.41647 75.2187 7.67873 74.8824 7.30276C74.5461 6.9268 74.3876 6.41073 74.3876 6.41073C74.3876 6.41073 73.7466 1.90093 73.7748 1.80871C73.8029 1.71826 73.9403 1.73068 74.0759 1.65442C74.2097 1.57639 74.0213 0.787219 73.9738 0.696774C73.928 0.60633 73.9561 0.483964 73.9561 0.483964C73.9561 0.483964 74.0759 0.405933 74.0741 0.209084C74.0724 0.0122342 73.8153 -0.00195312 73.8153 -0.00195312L73.486 0.00159371L71.512 0.0246482L70.7019 0.0352887C70.7019 0.0352887 70.4448 0.0530229 70.4466 0.251646C70.4501 0.448495 70.5716 0.522979 70.5716 0.522979C70.5716 0.522979 70.6033 0.643572 70.5593 0.735789C70.5153 0.828007 70.3444 1.62073 70.48 1.69521C70.6174 1.76969 70.753 1.75196 70.7829 1.8424C70.8146 1.93285 70.2775 6.45684 70.2775 6.45684C70.2775 6.45684 70.1331 6.97645 69.8056 7.36128C69.4781 7.74612 68.4233 8.50869 68.388 9.79974C68.3704 10.4524 68.4092 13.6481 68.4514 16.6522C65.7695 17.0548 63.0823 17.773 60.3863 18.8034C60.3176 18.8282 60.249 18.8566 60.182 18.8832C60.0922 18.3849 60.0288 18.0355 60.0024 17.8883C59.9602 17.6453 59.9109 17.3563 59.8598 17.0442C59.807 16.732 59.7506 16.3933 59.6907 16.0564V16.051C59.6819 16.0085 59.6749 15.9659 59.6678 15.9234C59.6643 15.9074 59.6626 15.8914 59.659 15.8755C59.6538 15.8506 59.6502 15.8276 59.6449 15.8028C59.6414 15.7868 59.6379 15.7691 59.6344 15.7513C59.6344 15.7478 59.6344 15.7442 59.6344 15.7389C59.6273 15.6946 59.6185 15.6538 59.6115 15.6112C59.608 15.5988 59.6062 15.5882 59.6044 15.5758C59.5974 15.5403 59.5921 15.5066 59.5851 15.4711C59.5816 15.4552 59.578 15.4374 59.5763 15.4233C59.5692 15.3931 59.5657 15.3612 59.5587 15.3328C59.5534 15.3151 59.5516 15.2956 59.5481 15.2778C59.5481 15.2778 59.5481 15.2772 59.5481 15.2761C59.5428 15.2477 59.5375 15.2211 59.5305 15.1945C59.527 15.175 59.5234 15.1555 59.5182 15.136C59.5129 15.1094 59.5076 15.0828 59.5006 15.0562C59.4935 15.0225 59.4865 14.9905 59.4794 14.9568C59.4759 14.9462 59.4741 14.9338 59.4724 14.9231C59.4689 14.909 59.4671 14.8948 59.4636 14.8824C59.4636 14.8788 59.4636 14.8753 59.4601 14.8717C59.4548 14.8504 59.4512 14.8274 59.4442 14.8061C59.4389 14.7884 59.4372 14.7724 59.4319 14.7564C59.4319 14.7511 59.4319 14.7458 59.4284 14.7405C59.4231 14.7192 59.4178 14.6997 59.4143 14.6802C59.4107 14.6642 59.4072 14.65 59.4037 14.6341C59.4037 14.627 59.4002 14.6217 59.3984 14.6146C59.3931 14.5933 59.3896 14.5756 59.3843 14.556C59.3808 14.5436 59.3773 14.5312 59.3738 14.517C59.3702 14.5082 59.3685 14.5011 59.3667 14.4922C59.3614 14.4745 59.3579 14.455 59.3526 14.4372C59.3491 14.4266 59.3473 14.4159 59.3438 14.4053C59.3438 14.3947 59.3385 14.384 59.3368 14.3752C59.3315 14.3592 59.3262 14.3415 59.3227 14.3237C59.3192 14.3149 59.3174 14.306 59.3157 14.2989C59.3121 14.2865 59.3086 14.2741 59.3033 14.2634C59.298 14.2475 59.2945 14.2315 59.2892 14.2156C59.2892 14.2102 59.2857 14.2049 59.284 14.1978C59.2804 14.1854 59.2769 14.173 59.2734 14.1623C59.2734 14.1606 59.2699 14.157 59.2699 14.1553C59.2663 14.1411 59.2611 14.1269 59.2558 14.1145C59.2558 14.1091 59.2558 14.1056 59.2523 14.1021C59.2487 14.0914 59.2435 14.0808 59.2417 14.0684C59.2382 14.0613 59.2364 14.0559 59.2347 14.0489C59.2311 14.0382 59.2276 14.0276 59.2241 14.0169C59.2241 14.0152 59.2241 14.0134 59.2241 14.0098C59.2135 13.9797 59.203 13.9531 59.1924 13.9265C59.1889 13.9194 59.1853 13.9123 59.1836 13.9052C59.1801 13.8981 59.1765 13.891 59.1748 13.8857C59.1677 13.868 59.1607 13.852 59.1519 13.8343C59.1466 13.8254 59.1431 13.8148 59.136 13.8059C59.1272 13.7882 59.1184 13.7704 59.1079 13.7545C59.1043 13.7491 59.1026 13.7438 59.0991 13.7385C59.0938 13.7296 59.0885 13.7208 59.0832 13.7119C59.0744 13.7013 59.0691 13.6871 59.0603 13.6764C59.0568 13.6693 59.0515 13.6605 59.0462 13.6516C59.0392 13.6427 59.0339 13.6321 59.0269 13.6232C59.0216 13.6161 59.0163 13.609 59.011 13.6019C59.0057 13.5949 59.0004 13.586 58.9952 13.5789C58.9864 13.5665 58.9758 13.5523 58.9652 13.5399C58.9652 13.5381 58.9617 13.5363 58.9617 13.5328C58.9599 13.5328 58.9582 13.5292 58.9564 13.5257C58.9494 13.5186 58.9441 13.5133 58.9388 13.5062C58.9247 13.4902 58.9106 13.4725 58.8965 13.4565C58.8877 13.4477 58.8807 13.4388 58.8719 13.4282C58.8578 13.414 58.8437 13.3998 58.8314 13.3838C58.8279 13.3803 58.8243 13.3767 58.8191 13.3732C58.8103 13.3625 58.8015 13.3537 58.7927 13.3466C58.7821 13.3359 58.7733 13.3271 58.7627 13.3164C58.7574 13.3111 58.7522 13.3058 58.7451 13.3005C58.7433 13.2987 58.7398 13.2951 58.7381 13.2934C58.7293 13.2863 58.7205 13.2774 58.7099 13.2685L58.6905 13.249C58.6905 13.249 58.6782 13.2384 58.6729 13.2349C58.6571 13.2207 58.643 13.2082 58.6271 13.1941C58.6236 13.1905 58.6183 13.187 58.6148 13.1834C58.6095 13.1781 58.6042 13.1746 58.5989 13.1692C58.5778 13.1515 58.5567 13.1338 58.5356 13.1178V13.116C58.525 13.1072 58.5144 13.1001 58.5039 13.0912C58.488 13.0788 58.4722 13.0664 58.4563 13.054C58.451 13.0504 58.4475 13.0469 58.4422 13.0433C58.4299 13.0327 58.4193 13.0256 58.4052 13.0149C58.3947 13.0061 58.3824 12.999 58.3718 12.9901C58.3683 12.9883 58.363 12.9848 58.3595 12.9795C58.3524 12.9759 58.3471 12.9706 58.3418 12.9671C58.3313 12.9582 58.319 12.9511 58.3084 12.9422C58.3013 12.9369 58.2943 12.9316 58.2873 12.928C58.2837 12.9263 58.2802 12.9227 58.2767 12.921C58.2556 12.9068 58.2327 12.8908 58.2115 12.8748C58.2045 12.8695 58.1957 12.8642 58.1886 12.8589C58.1622 12.8412 58.1358 12.8234 58.1094 12.8057C58.1094 12.8057 58.1094 12.8057 58.1076 12.8057C58.0953 12.7968 58.0812 12.7879 58.0689 12.7809C58.046 12.7667 58.0249 12.7507 58.002 12.7383C57.9879 12.7277 57.9738 12.7206 57.9597 12.7117C57.9351 12.6975 57.9122 12.6815 57.8858 12.6674C57.8734 12.6603 57.8629 12.6532 57.8523 12.6461C57.8153 12.6248 57.7801 12.6017 57.7431 12.5822C57.4913 12.4315 57.236 12.2825 56.993 12.1336C56.9912 12.1318 56.9877 12.13 56.9859 12.1282C56.9595 12.1123 56.9331 12.0963 56.9067 12.0804C56.9032 12.0768 56.8979 12.075 56.8926 12.0697C56.8697 12.0555 56.8468 12.0396 56.8239 12.0254C56.8169 12.0201 56.8116 12.0165 56.8045 12.0112C56.7817 11.997 56.7605 11.9828 56.7412 11.9704C56.7341 11.9651 56.7253 11.9598 56.7183 11.9544C56.6901 11.9349 56.6601 11.9154 56.632 11.8977C56.6056 11.8782 56.5791 11.8587 56.5545 11.8409C56.5474 11.8356 56.5386 11.8268 56.5316 11.8214C56.514 11.809 56.4981 11.7948 56.4823 11.7824C56.4735 11.7753 56.4647 11.7682 56.4541 11.7594C56.44 11.747 56.4259 11.7345 56.4119 11.7221C56.4031 11.7133 56.3942 11.7062 56.3837 11.6973C56.3696 11.6849 56.3573 11.6725 56.3432 11.6601C56.3344 11.653 56.3256 11.6441 56.3185 11.6352C56.3044 11.6228 56.2939 11.6104 56.2815 11.5962C56.2727 11.5891 56.2639 11.5803 56.2569 11.5714C56.2446 11.5572 56.2322 11.5448 56.2217 11.5306C56.2146 11.5235 56.2076 11.5146 56.2005 11.5075C56.1865 11.4916 56.1741 11.4756 56.16 11.4597C56.1548 11.4526 56.1512 11.4472 56.146 11.4419C56.1283 11.4206 56.1125 11.3994 56.0966 11.3763C56.0896 11.3692 56.0843 11.3603 56.079 11.3515C56.0685 11.3391 56.0597 11.3249 56.0491 11.3107C56.0421 11.3 56.035 11.2912 56.028 11.2788C56.0209 11.2681 56.0139 11.2557 56.0051 11.2433C55.998 11.2327 55.991 11.222 55.9839 11.2114C55.9769 11.2007 55.9699 11.1883 55.9646 11.1777C55.9558 11.1653 55.9505 11.1529 55.9434 11.1422C55.9382 11.1316 55.9329 11.1227 55.9276 11.1121C55.9188 11.0997 55.9135 11.0872 55.9065 11.0748C55.9029 11.066 55.8977 11.0571 55.8924 11.0482L55.8712 11.0057C55.8712 11.0057 55.866 10.995 55.8624 10.9897C55.8536 10.9737 55.8466 10.956 55.8395 10.94C55.7973 10.8478 55.7603 10.7574 55.7286 10.6687C55.711 10.6191 55.6969 10.5712 55.6828 10.5215C55.6793 10.5109 55.6775 10.5002 55.674 10.4878C55.6617 10.4488 55.6529 10.4116 55.6441 10.3743C55.6441 10.3637 55.6388 10.353 55.637 10.3424C55.6335 10.33 55.6318 10.3176 55.6282 10.3034C55.623 10.2839 55.6194 10.2644 55.6159 10.2466C55.6106 10.2271 55.6089 10.2094 55.6036 10.1917C55.6001 10.1757 55.5965 10.158 55.5948 10.1438C55.593 10.1296 55.5895 10.1172 55.5877 10.103C55.5877 10.0888 55.5825 10.0746 55.5807 10.0622C55.5754 10.0356 55.5719 10.009 55.5666 9.98595C55.5666 9.9824 55.5666 9.97885 55.5666 9.97353C55.5631 9.95757 55.5613 9.94338 55.5596 9.9292C55.5578 9.91324 55.5543 9.89905 55.5525 9.88486C55.4962 9.56565 55.114 7.43399 54.9327 6.43201C54.8939 6.22275 54.8657 6.06314 54.8517 5.97802C54.8481 5.9656 54.8464 5.95674 54.8464 5.94787C54.8393 5.9124 54.8552 5.88225 54.8851 5.86097C54.8974 5.8521 54.908 5.84324 54.9168 5.8326H54.908C54.908 5.8326 54.9256 5.82018 54.9309 5.81309C54.9415 5.80422 54.9503 5.79358 54.9573 5.78294L54.9608 5.77939C54.9608 5.77939 54.9644 5.7723 54.9661 5.76698V5.76521C54.9696 5.75634 54.9714 5.74747 54.9732 5.73861V5.73329C54.9732 5.73329 54.9749 5.71732 54.9732 5.70668C54.9661 5.66767 54.9291 5.46373 54.9168 5.39456C54.9168 5.3857 54.9133 5.3786 54.9098 5.37151C54.9098 5.37151 54.9098 5.36796 54.9062 5.36619C54.9062 5.36264 54.9027 5.35909 54.901 5.35732C54.901 5.35732 54.8974 5.35555 54.8974 5.352C54.8957 5.352 54.8939 5.34845 54.8922 5.34668C54.8886 5.34313 54.8851 5.33959 54.8816 5.33604C54.8816 5.33427 54.8781 5.33249 54.8763 5.33072C54.8728 5.32717 54.8675 5.32363 54.864 5.32008C54.8622 5.32008 54.8587 5.31831 54.8569 5.31476C54.8534 5.31299 54.8499 5.30944 54.8446 5.30944C54.8411 5.30589 54.8358 5.30412 54.8323 5.30057C54.8323 5.30057 54.8288 5.2988 54.827 5.29702C54.8252 5.29702 54.8217 5.29348 54.82 5.2917L54.8164 5.28993C54.8147 5.28816 54.8129 5.28461 54.8112 5.28284C54.8112 5.28106 54.8112 5.27752 54.8112 5.27574V5.27397C54.8112 5.2722 54.8129 5.27042 54.8147 5.26688C54.8147 5.26688 54.8147 5.2651 54.8164 5.26333C54.8164 5.26156 54.82 5.25801 54.8217 5.25624C54.8217 5.25624 54.8288 5.24737 54.8323 5.24205C54.8376 5.23673 54.8411 5.23141 54.8446 5.22609C54.8446 5.22431 54.8481 5.22077 54.8499 5.21899C54.8499 5.21722 54.8499 5.21545 54.8517 5.2119C54.8517 5.2119 54.8517 5.20835 54.8534 5.20658C54.8552 5.19771 54.8569 5.18885 54.8552 5.18175C54.8552 5.17998 54.8552 5.17466 54.8552 5.16934C54.8552 5.16934 54.8552 5.16756 54.8552 5.16579C54.8552 5.16047 54.8552 5.15338 54.8517 5.14451C54.8517 5.14451 54.8517 5.14451 54.8517 5.14274C54.8517 5.13564 54.8481 5.12855 54.8481 5.12146C54.8376 5.05407 54.82 4.94766 54.8041 4.84658C54.7988 4.82175 54.7953 4.79869 54.7918 4.77564C54.7812 4.71357 54.7742 4.66214 54.7689 4.62845C54.7689 4.62845 54.7689 4.61426 54.7654 4.61071C54.7654 4.60539 54.7654 4.60007 54.7654 4.5983C54.7654 4.59298 54.7618 4.58766 54.7583 4.58411C54.7583 4.58411 54.7583 4.58234 54.7548 4.58056C54.753 4.57879 54.7495 4.57524 54.7478 4.57347C54.746 4.5717 54.7425 4.56992 54.739 4.56815C54.7354 4.56815 54.7319 4.5646 54.7284 4.56283C54.7284 4.56283 54.7266 4.56283 54.7249 4.56283C54.7213 4.56106 54.7178 4.55751 54.7161 4.55751C54.7161 4.55751 54.7155 4.55751 54.7143 4.55751C54.7143 4.55751 54.7073 4.55219 54.7055 4.54864C54.7055 4.54864 54.7055 4.54805 54.7055 4.54687C54.7055 4.54687 54.702 4.54155 54.702 4.538C54.702 4.538 54.702 4.53623 54.702 4.53445C54.702 4.53091 54.702 4.52559 54.702 4.51849C54.7143 4.46706 54.7337 4.49012 54.7636 4.42805C54.7636 4.42805 54.7636 4.42273 54.7636 4.41563C54.7636 4.39613 54.7619 4.35711 54.7566 4.30923C54.7566 4.30391 54.7566 4.29682 54.753 4.29327C54.753 4.28618 54.7513 4.27731 54.7495 4.26844C54.7495 4.25957 54.746 4.25248 54.7442 4.24361C54.7442 4.24007 54.7442 4.23652 54.7407 4.2312C54.7407 4.21879 54.7354 4.20814 54.7319 4.1975C54.7319 4.19573 54.7319 4.19041 54.7284 4.18686C54.7249 4.17622 54.7196 4.16381 54.7161 4.15317C54.7161 4.1514 54.7125 4.14962 54.7125 4.14608C54.7073 4.13543 54.7002 4.12479 54.6932 4.11593C54.6245 4.02016 54.2318 4.02903 53.7863 4.09287C53.6472 4.11238 53.2069 4.16558 53.0256 4.2046C52.8424 4.23297 52.4127 4.3376 52.2754 4.36775C51.8352 4.46529 51.4654 4.59652 51.4337 4.71002C51.4319 4.71712 51.4284 4.72776 51.4284 4.73662C51.4284 4.7384 51.4284 4.74194 51.4284 4.74372V4.75081C51.4284 4.76323 51.4284 4.77564 51.4284 4.78805V4.79515C51.4301 4.80756 51.4301 4.82175 51.4319 4.83416C51.4319 4.83416 51.4319 4.83594 51.4319 4.83771C51.4319 4.85012 51.4354 4.86431 51.4389 4.8785C51.4425 4.89446 51.4442 4.90687 51.4495 4.92106C51.4636 4.97781 51.4794 5.02214 51.4794 5.02214C51.5305 5.0718 51.5411 5.04343 51.5693 5.08776C51.5728 5.09308 51.5728 5.09663 51.5745 5.10195V5.11436C51.5745 5.11436 51.5745 5.11436 51.5745 5.11614C51.5745 5.11968 51.5728 5.12323 51.5693 5.12678C51.5693 5.12678 51.5687 5.12796 51.5675 5.13032C51.5675 5.13032 51.564 5.13742 51.5622 5.13919C51.5622 5.13919 51.5605 5.14274 51.5587 5.14274C51.5569 5.14628 51.5534 5.14983 51.5516 5.1516C51.5499 5.15515 51.5481 5.1587 51.5464 5.16047C51.5446 5.16402 51.5428 5.16756 51.5411 5.17111C51.5411 5.17111 51.5393 5.17466 51.5393 5.17643C51.5393 5.17998 51.5376 5.18707 51.5393 5.19239C51.5393 5.19417 51.5393 5.19949 51.5428 5.20481C51.5499 5.24028 51.564 5.32008 51.5833 5.41052C51.5886 5.43535 51.5921 5.46195 51.5992 5.48678C51.6186 5.58964 51.6397 5.69072 51.6485 5.74215C51.6485 5.74925 51.652 5.75457 51.652 5.75811C51.652 5.75811 51.6555 5.76875 51.6555 5.77407C51.6555 5.77939 51.6591 5.78294 51.6608 5.78826C51.6608 5.78826 51.6608 5.79181 51.6644 5.79358C51.6679 5.79535 51.6644 5.79358 51.6644 5.79536L51.6679 5.79713C51.6714 5.7989 51.6714 5.80245 51.6749 5.80422C51.6749 5.80422 51.6767 5.80422 51.6784 5.806C51.6908 5.81486 51.7013 5.82196 51.7137 5.82728C51.7137 5.82728 51.7189 5.8326 51.7225 5.8326C51.7225 5.8326 51.7225 5.8326 51.726 5.83437C51.7277 5.83437 51.7295 5.83614 51.7313 5.83969C51.7313 5.83969 51.7313 5.83969 51.733 5.84146C51.733 5.84146 51.7365 5.84501 51.7365 5.84856C51.7365 5.85033 51.7348 5.85565 51.733 5.85742C51.733 5.85742 51.733 5.8592 51.7313 5.86097C51.7313 5.86274 51.7277 5.86629 51.726 5.86807C51.7242 5.86807 51.7225 5.87161 51.7207 5.87339C51.7189 5.87693 51.7137 5.88048 51.7119 5.8858C51.7084 5.88935 51.7049 5.89467 51.7013 5.89821C51.7013 5.89999 51.6996 5.90176 51.6978 5.90353C51.6943 5.90885 51.6908 5.9124 51.6872 5.91772C51.6872 5.91949 51.6855 5.92304 51.6837 5.92481C51.682 5.92836 51.6802 5.93191 51.6784 5.93723C51.6784 5.939 51.6767 5.94255 51.6767 5.94432C51.6767 5.9461 51.6767 5.94787 51.6749 5.94964C51.6749 5.95142 51.6749 5.95674 51.6749 5.95851C51.6749 5.96028 51.6749 5.96383 51.6749 5.9656C51.6749 5.9727 51.6749 5.97979 51.6749 5.98866C51.6872 6.05782 51.7242 6.26176 51.7313 6.30078C51.7313 6.30965 51.7365 6.31674 51.7401 6.32561C51.7401 6.32738 51.7401 6.32915 51.7436 6.33093C51.7471 6.33802 51.7524 6.34689 51.7577 6.35221C51.7577 6.35221 51.7594 6.35221 51.7612 6.35398C51.763 6.35576 51.7665 6.36108 51.77 6.36285C51.77 6.36285 51.7735 6.36285 51.7753 6.36462C51.7859 6.37349 51.7982 6.37881 51.8087 6.3859C51.8175 6.38768 51.8281 6.393 51.8387 6.39654H51.8334C51.8457 6.40364 51.8581 6.41073 51.8721 6.41428C51.8792 6.41428 51.8845 6.4196 51.8898 6.42137C51.9003 6.42669 51.9109 6.43556 51.9179 6.44443C51.9267 6.45507 51.932 6.46925 51.9355 6.48344C51.9355 6.49231 51.9391 6.50118 51.9408 6.51359C51.9567 6.59871 51.9848 6.7601 52.0236 6.96759C52.2032 7.96957 52.5853 10.1012 52.6434 10.4204C52.6434 10.4346 52.6487 10.4488 52.6505 10.4648C52.6505 10.4772 52.6558 10.4896 52.6575 10.502C52.6575 10.5091 52.661 10.518 52.6628 10.5268C52.6681 10.5481 52.6716 10.5712 52.6751 10.596C52.6787 10.6102 52.6804 10.6261 52.6822 10.6403C52.6857 10.6545 52.6875 10.6669 52.6892 10.6811C52.691 10.6971 52.6945 10.7148 52.698 10.7308C52.6998 10.7485 52.7033 10.7663 52.7068 10.784C52.7086 10.7999 52.7104 10.8159 52.7139 10.8336C52.7139 10.8372 52.7139 10.8407 52.7139 10.8461C52.7139 10.8585 52.7156 10.8709 52.7174 10.8815C52.7174 10.8939 52.7209 10.9046 52.7209 10.9152C52.7262 10.9542 52.7297 10.9915 52.7332 11.0323C52.7332 11.0447 52.735 11.0553 52.735 11.0677C52.7385 11.1121 52.7403 11.1599 52.742 11.2078C52.7438 11.2681 52.742 11.332 52.742 11.3958C52.742 11.4029 52.742 11.4118 52.742 11.4189C52.742 11.4543 52.7385 11.4898 52.735 11.5253C52.735 11.5288 52.735 11.5324 52.735 11.5359C52.735 11.5607 52.7297 11.5856 52.728 11.6104C52.7244 11.6335 52.7227 11.6583 52.7174 11.6831C52.7139 11.7008 52.7121 11.7203 52.7086 11.7399C52.7051 11.7647 52.6998 11.7895 52.6963 11.8143C52.691 11.8338 52.6875 11.8534 52.6822 11.8729C52.6769 11.8977 52.6716 11.9225 52.6646 11.9473C52.6593 11.9669 52.654 11.9881 52.6487 12.0076C52.6399 12.0325 52.6329 12.0591 52.6241 12.0839C52.6188 12.1034 52.6117 12.1247 52.6047 12.1442C52.5959 12.1708 52.5853 12.1956 52.5748 12.2205C52.566 12.2417 52.5589 12.2612 52.5501 12.2825C52.5395 12.3091 52.5255 12.3357 52.5149 12.3606C52.5061 12.3801 52.4973 12.3978 52.4867 12.4191C52.4726 12.4475 52.455 12.4776 52.4392 12.506C52.4304 12.5202 52.4233 12.5344 52.4163 12.5485C52.4128 12.5539 52.4092 12.561 52.4057 12.5663C52.3793 12.6106 52.3529 12.6514 52.3247 12.6922C51.9848 13.1816 51.5235 13.6871 51.1642 14.196C51.1642 14.1978 51.1607 14.2014 51.159 14.2031C51.1343 14.2386 51.1097 14.2741 51.085 14.3095C51.0832 14.3131 51.0797 14.3166 51.078 14.322C51.0286 14.3964 50.9811 14.4745 50.9371 14.549C50.9336 14.5543 50.9318 14.5596 50.9265 14.5649C50.9089 14.5986 50.8895 14.6288 50.8737 14.6607C50.8702 14.6678 50.8666 14.6731 50.8631 14.6802C50.8244 14.7529 50.7909 14.8274 50.7592 14.9019C50.7575 14.909 50.7539 14.9161 50.7504 14.9249C50.7381 14.9533 50.7275 14.9834 50.717 15.0136C50.7152 15.0207 50.7117 15.0296 50.7082 15.0384C50.6835 15.1094 50.6624 15.1821 50.6483 15.2548C50.6483 15.2636 50.6448 15.2725 50.6448 15.2814C50.6395 15.308 50.636 15.3364 50.6324 15.363C50.6307 15.3736 50.6289 15.3842 50.6289 15.3931C50.6254 15.4286 50.6219 15.464 50.6219 15.4995C50.6219 15.5261 50.6219 15.5545 50.6219 15.5829V15.6414C50.6219 15.6414 50.6219 15.6449 50.6219 15.6485V15.7176C50.6254 15.7336 50.6254 15.7478 50.6272 15.762V15.7833C50.6272 15.8045 50.6307 15.8223 50.6307 15.8436C50.6307 15.856 50.6324 15.8702 50.6342 15.8826V15.8897C50.636 15.9145 50.6395 15.9393 50.6412 15.9641C50.6412 15.9766 50.643 15.989 50.643 15.9996C50.643 16.0014 50.643 16.0067 50.643 16.0085C50.643 16.0209 50.6448 16.0351 50.6465 16.0493C50.6465 16.0581 50.6465 16.067 50.6483 16.0759C50.6483 16.0883 50.65 16.1025 50.6518 16.1149C50.6518 16.1238 50.6536 16.1326 50.6536 16.1415C50.6553 16.161 50.6571 16.1787 50.6588 16.1982C50.6588 16.2106 50.6624 16.2231 50.6624 16.2337C50.6641 16.2497 50.6677 16.2674 50.6694 16.2834C50.6712 16.3011 50.6729 16.3206 50.6747 16.3383C50.6747 16.3454 50.6747 16.3507 50.6782 16.3561C50.68 16.3809 50.6835 16.4057 50.687 16.4306C50.687 16.4359 50.687 16.4412 50.687 16.4447C50.687 16.4589 50.6905 16.4731 50.6923 16.4873C50.6958 16.5121 50.6993 16.537 50.7029 16.56C50.7046 16.576 50.7082 16.5937 50.7099 16.6114C50.7099 16.6185 50.7099 16.6239 50.7134 16.6292C50.7152 16.6505 50.7187 16.6682 50.7222 16.6895C50.7258 16.709 50.7275 16.7249 50.731 16.7427C50.731 16.7569 50.7346 16.771 50.7363 16.7852C50.7399 16.8065 50.7434 16.826 50.7469 16.8473C50.7469 16.8562 50.7504 16.8668 50.7522 16.8775C50.7557 16.9005 50.7592 16.9253 50.7627 16.9484C50.7645 16.9679 50.768 16.9856 50.7716 17.0051C50.7716 17.0069 50.7716 17.0105 50.7716 17.0122C50.7768 17.0477 50.7821 17.0832 50.7892 17.1169C50.7892 17.1275 50.7909 17.1381 50.7944 17.147C50.7944 17.1594 50.798 17.1718 50.7997 17.1843C50.8068 17.2144 50.8103 17.2463 50.8156 17.2765C50.8156 17.2765 50.8156 17.28 50.8156 17.2818C50.8173 17.296 50.8209 17.3102 50.8226 17.3261C50.8261 17.3439 50.8297 17.3634 50.8314 17.3829C50.8385 17.4183 50.8437 17.4538 50.8508 17.4911C50.8561 17.5123 50.8578 17.5301 50.8614 17.5514C50.8684 17.5904 50.8754 17.6276 50.8825 17.6649C50.886 17.6808 50.8895 17.6985 50.8913 17.7145C50.9001 17.7677 50.9107 17.8191 50.9195 17.8723C50.923 17.8883 50.9265 17.9025 50.9283 17.9185C50.9353 17.9575 50.9424 17.9947 50.9494 18.032C50.9494 18.039 50.9529 18.0479 50.9547 18.0568C51.0568 18.5941 51.159 19.1066 51.2294 19.4986C51.2946 19.8657 51.5851 21.5132 51.9443 23.5491C50.0038 25.1327 48.4136 26.9505 47.2004 29.0183C46.9978 28.2876 46.7918 27.557 46.5805 26.8299C46.5558 26.3865 45.9096 25.9095 45.8444 25.5743C45.7828 25.2515 46.4255 24.8809 46.6685 24.5883C50.9371 19.4542 44.2349 13.7172 39.1018 17.0548C35.9462 19.1084 35.1361 23.8257 37.4729 26.0957C37.6472 26.2642 39.2021 25.9946 39.8836 23.4976C39.8537 26.3333 38.4766 26.821 38.7214 26.9274C39.306 27.1828 39.9946 27.3371 40.7905 27.3601C40.7606 28.2114 40.3045 29.0786 39.667 29.6319L25.1903 34.5691C25.0811 33.4554 27.3827 30.946 26.9354 30.0309C26.4582 29.0555 24.4842 29.8181 23.7375 30.0877C20.0413 31.4266 18.5269 33.3632 16.78 36.7557C16.4085 37.4757 15.3959 39.43 15.2938 40.1146C15.2463 40.4391 15.3413 40.8168 15.2639 41.1502L21.5082 44.2591L15.4083 56.7581L14.9222 56.6854L14.9064 56.2367L18.4846 45.2362C18.4459 44.6581 16.7994 44.0728 16.2799 43.899C11.2031 42.2019 4.72461 44.1952 1.81553 48.7937C1.34888 49.5314 0.889273 50.3791 0.794182 51.2676L8.76422 50.991C8.9139 50.9856 9.08823 51.5177 8.76774 51.6312L0.382121 52.8087C-0.0334616 53.174 -0.0669196 55.8732 0.315205 56.3431C0.834684 56.9816 3.41975 56.8379 4.25268 57.1625C4.24211 57.338 3.79483 57.3841 3.66452 57.4001C2.53752 57.5313 1.37882 57.5313 0.257094 57.7388C0.688526 59.2303 0.899839 60.5231 2.62028 60.9044L9.61123 61.6829L9.63412 62.1121L2.37023 62.3639C2.71361 63.0307 3.27711 63.7383 3.79131 64.2827C8.65856 69.4381 17.8753 69.2359 22.3869 63.6869L17.4739 59.5974L18.7998 58.3028C23.2832 61.8585 28.4304 64.6888 34.0936 65.7777C41.1409 67.1308 48.9102 65.7494 55.4398 62.2699C62.5364 66.5048 69.9518 67.012 77.8637 64.6374C89.78 61.064 98.1445 45.3497 109.041 40.6696C103.195 38.1301 96.1881 44.3956 92.2964 45.4685C90.8506 45.8675 88.977 46.1034 88.2216 44.2395C87.4696 42.381 89.7518 39.4336 90.9633 38.4866L90.9158 38.4795ZM20.8742 35.149C20.7879 35.5888 19.5764 38.311 19.307 38.6426C18.6061 39.5098 17.988 39.2722 17.0424 38.9955L19.8775 34.4237C20.0924 34.1665 20.4587 34.1346 20.7686 34.1807C20.9394 34.507 20.9411 34.7943 20.8725 35.1472L20.8742 35.149ZM31.5297 57.0738H28.1557V48.4532H31.5297V57.0738ZM36.8847 54.4615H33.3435L36.0853 46.075H28.1575V43.3156H40.5545L36.8865 54.4633L36.8847 54.4615ZM41.1163 35.1525C41.0705 35.2785 40.6496 35.9524 40.5422 36.0942C40.2464 36.4897 39.6653 37.0359 39.1757 37.1352L27.955 37.5254C27.9321 37.3569 28.2367 37.3604 28.3618 37.3285C30.3604 36.8213 32.4771 36.307 34.4969 35.9098C36.0906 35.5959 39.4663 34.8511 40.949 34.9965C41.0582 35.0071 41.1832 34.9592 41.1145 35.1525H41.1163ZM47.7234 54.4615H41.6094V51.7021H44.3494V46.075H41.9246V43.3156H47.7234V54.4633V54.4615ZM49.4086 28.3089H54.0909V38.4139H51.0339V30.8112H49.4086V28.3089ZM54.7865 49.4924H51.4125V46.0733H49.6199V43.3138H54.7847V49.4924H54.7865ZM68.4831 28.3089H73.1655V38.4139H70.1085V30.8112H68.4831V28.3089ZM56.3837 28.3089H67.622L64.2956 38.4139H61.0854L63.5701 30.8112H56.3837V28.3089ZM56.3837 32.9677H59.4407V40.7814H56.3837V32.9677ZM65.3504 54.4615H61.9764V47.3909C61.9764 46.4989 61.4711 46.075 60.6064 46.075H56.5369V43.3156H61.1329C63.6846 43.3156 65.3504 44.8656 65.3504 47.4565V54.4633V54.4615ZM77.4939 46.075H75.7858V54.4615H72.3061V46.075H67.2047V43.3156H77.4939V46.075ZM81.8029 38.4139H76.3757L75.1712 28.3089H78.1718L78.6297 32.4091H78.6878C79.5295 32.4091 80.1793 32.0242 80.2938 31.1198C80.4082 30.1958 80.4857 29.2329 80.5808 28.3089H83.5234C83.4652 29.1176 83.4089 29.9458 83.3332 30.7527C83.1236 33.1787 82.0142 34.2552 79.5876 34.2552H78.8428L79.0329 35.9098H81.6321C84.0974 35.9098 85.2825 33.6771 85.4921 31.4833C85.5872 30.4246 85.6823 29.3659 85.7791 28.3071H88.8185C88.2832 33.216 88.0543 38.4121 81.8047 38.4121L81.8029 38.4139Z" fill="url(#paint0_linear_267_101)"/>
</g>
<defs>
<linearGradient id="paint0_linear_267_101" x1="-3.71588e-06" y1="33.9998" x2="122" y2="33.9998" gradientUnits="userSpaceOnUse">
<stop stop-color="#D41700"/>
<stop offset="1" stop-color="#F58A2A"/>
</linearGradient>
<clipPath id="clip0_267_101">
<rect width="122" height="68" fill="white"/>
</clipPath>
</defs>
</svg>
